<svg xmlns="http://www.w3.org/2000/svg" width="800" height="500" xmlns:v="https://vecta.io/nano"><rect width="779.666" height="471.651" ry="101.364" x="12.966" y="16.993" fill="none" stroke="#1f1e1c" stroke-width="5.658" stroke-linejoin="round" stroke-opacity=".957"/><path d="M179.586 118.564c-53.404 0-96.856 43.422-96.856 96.826v117.335h28.288v-72.723h273.889v-28.288H111.018v-16.324c0-38.222 30.346-68.538 68.568-68.538h205.321v-28.288H179.586zm242.478-63.588v277.749h28.288V218.042c0-39.689 32.238-71.19 71.927-71.19h103.986c39.689 0 71.22 31.501 71.22 71.19v114.683h28.288V218.042c0-54.871-44.636-99.478-99.508-99.478H522.279c-28.263 0-53.796 11.846-71.927 30.822v-94.41h-28.288z" fill="#a40018"/><g fill="#201f1d" stroke="#201f1d"><path d="M133.196 416.689c0 8.012-2.196 14.411-6.588 19.197s-10.227 7.178-17.508 7.178c-6.045 0-11.131-1.694-15.258-5.083s-6.81-8.013-8.049-13.874c-.465-2.198-.707-4.534-.726-7.007.004-7.783 2.216-14.056 6.635-18.818s10.246-7.143 17.48-7.143c6.548 0 11.872 1.9 15.972 5.701 3.702 3.433 6.158 8.012 7.368 13.735a30.52 30.52 0 0 1 .674 6.114h0zm-6.904.48c.023-2.061-.159-4.007-.546-5.837-.939-4.442-2.879-7.934-5.82-10.475s-6.541-3.812-10.798-3.812c-5.174 0-9.332 1.832-12.472 5.495s-4.713 8.517-4.719 14.56c-.023 2.061.159 4.008.547 5.84.929 4.395 2.864 7.863 5.805 10.405s6.542 3.813 10.801 3.813c5.173 0 9.33-1.832 12.471-5.495s4.718-8.494 4.732-14.493h0zm50.257-12.226c-.013 4.488-2.222 7.9-6.628 10.235 2.806 1.144 4.825 2.358 6.058 3.64s2.066 2.954 2.502 5.015a16.81 16.81 0 0 1 .353 3.295c-.032 4.396-1.574 7.934-4.625 10.612s-7.095 4.018-12.133 4.018h-21.222l.085-49.314h21.704c3.618 0 6.638.858 9.061 2.575s3.949 4.063 4.578 7.04c.193.915.282 1.877.266 2.884h0zm-6.698.482a9.89 9.89 0 0 0-.201-1.924c-.755-3.572-4.086-5.357-9.992-5.357H147.57l-.02 15.18h12.019c6.869 0 10.297-2.633 10.282-7.898h0zm2.359 21.566c-.007-.687-.073-1.329-.199-1.924-.89-4.212-4.678-6.317-11.363-6.317H147.53l.017 17.307h14.217c3.342 0 5.923-.79 7.741-2.37s2.72-3.812 2.706-6.696h0zm51.218-34.547l-.055 5.907h-29.261l.035 15.11h26.993l-.057 5.907h-26.991l-.021 16.483h29.741l.012 5.907h-36.402l.087-49.314h35.92zm48.918 13.392c.011 3.298-.833 6.023-2.531 8.175-.866 1.098-2.313 2.266-4.341 3.502 3.072 1.328 4.894 3.342 5.465 6.043.184.871.32 1.947.408 3.23l.445 8.927c.03 1.008.098 1.763.205 2.268.222 1.052.961 1.945 2.216 2.679l.025 1.098h-8.172c-.22-.824-.39-1.626-.508-2.404-.378-2.655-.586-5.7-.625-9.135-.011-1.786-.119-3.159-.322-4.121-.252-1.191-.8-2.266-1.644-3.228-1.327-1.512-3.616-2.268-6.868-2.268h-16.14l.007 21.155h-6.661l.085-49.314h22.803c9.158 0 14.434 3.296 15.828 9.889.232 1.1.341 2.267.327 3.502h0zm-6.836.482c-.009-.917-.091-1.741-.246-2.473-.803-3.801-3.678-5.701-8.623-5.701H240.02l-.029 16.76h15.454c6.685 0 10.04-2.862 10.066-8.585h0zm62.197 10.371a30.52 30.52 0 0 0-.674-6.114c-1.21-5.724-3.666-10.302-7.368-13.735-4.1-3.801-9.424-5.701-15.972-5.701-7.234 0-13.061 2.381-17.48 7.143s-6.631 11.035-6.635 18.818c.02 2.473.262 4.809.726 7.007 1.239 5.861 3.921 10.485 8.049 13.874s9.213 5.083 15.258 5.083c7.28 0 13.116-2.393 17.508-7.178s6.587-11.184 6.588-19.197h0zm-6.904.48c-.014 5.999-1.591 10.83-4.732 14.493s-7.298 5.495-12.471 5.495c-4.259 0-7.859-1.271-10.801-3.813s-4.876-6.01-5.805-10.405c-.387-1.832-.569-3.778-.547-5.84.005-6.044 1.578-10.897 4.719-14.56s7.298-5.495 12.472-5.495c4.258 0 7.857 1.271 10.798 3.812s4.881 6.033 5.82 10.475c.387 1.831.569 3.776.546 5.837h0zm-9.393-37.295h-6.25l-.031 7.005h6.25l.031-7.005zm-11.126 0h-6.25l-.031 7.005h6.25l.031-7.005zm71.252 26.993h-6.25c-.045-.641-.125-1.237-.241-1.786-1.161-5.494-5.221-8.242-12.18-8.242-3.481 0-6.195.755-8.142 2.266s-2.915 3.594-2.902 6.25c-.011.595.036 1.144.143 1.647.513 2.427 2.404 4.007 5.672 4.739l14.076 3.228c6.161 1.42 9.783 4.694 10.867 9.822.223 1.054.327 2.199.313 3.435-.019 4.67-1.756 8.31-5.212 10.92s-8.296 3.915-14.523 3.915c-6.823 0-11.955-1.855-15.394-5.565-1.001-1.052-1.82-2.22-2.459-3.502-1.02-2.015-1.572-4.739-1.658-8.172h6.25c.066.961.186 1.854.361 2.679 1.248 5.907 5.787 8.86 13.617 8.86 8.38 0 12.573-2.908 12.579-8.724.016-1.877-.514-3.41-1.589-4.601-1.253-1.374-4.239-2.61-8.959-3.71l-10.041-2.335c-5.876-1.374-9.292-4.327-10.25-8.86-.193-.915-.287-1.9-.28-2.953-.026-4.67 1.556-8.344 4.744-11.023s7.53-4.018 13.024-4.018c3.526 0 6.668.572 9.428 1.717 3.413 1.42 5.842 3.595 7.286 6.525.882 1.786 1.455 4.282 1.721 7.487h0zm45.58-14.423l-.057 5.907h-16.689l-.03 43.407h-6.663l.03-43.407H377.02l.055-5.907h40.043zm42.812 0l-.055 5.907h-29.261l.035 15.11h26.993l-.057 5.907h-26.991l-.021 16.483h29.741l.012 5.907h-36.402l.087-49.314h35.92zm48.918 13.392c.011 3.298-.833 6.023-2.531 8.175-.866 1.098-2.313 2.266-4.341 3.502 3.072 1.328 4.894 3.342 5.465 6.043.184.871.32 1.947.408 3.23l.445 8.927c.03 1.008.098 1.763.205 2.268.222 1.052.961 1.945 2.216 2.679l.025 1.098h-8.172c-.22-.824-.39-1.626-.508-2.404-.378-2.655-.586-5.7-.625-9.135-.011-1.786-.119-3.159-.322-4.121-.252-1.191-.8-2.266-1.644-3.228-1.327-1.512-3.616-2.268-6.868-2.268h-16.14l.007 21.155h-6.661l.085-49.314h22.803c9.158 0 14.434 3.296 15.828 9.889.232 1.1.341 2.267.327 3.502h0zm-6.836.482c-.009-.917-.091-1.741-.246-2.473-.803-3.801-3.678-5.701-8.623-5.701h-16.622l-.029 16.76h15.454c6.685 0 10.04-2.862 10.066-8.585h0zm56.47-.482c.011 3.298-.833 6.023-2.531 8.175-.866 1.098-2.313 2.266-4.341 3.502 3.072 1.328 4.894 3.342 5.465 6.043.184.871.32 1.947.408 3.23l.445 8.927c.03 1.008.098 1.763.205 2.268.222 1.052.961 1.945 2.216 2.679l.025 1.098H552.2c-.22-.824-.39-1.626-.508-2.404-.378-2.655-.586-5.7-.625-9.135-.011-1.786-.119-3.159-.322-4.121-.252-1.191-.8-2.266-1.644-3.228-1.327-1.512-3.616-2.268-6.868-2.268h-16.14l.007 21.155h-6.661l.085-49.314h22.803c9.158 0 14.434 3.296 15.828 9.889.232 1.1.341 2.267.327 3.502h0zm-6.836.482c-.009-.917-.091-1.741-.246-2.473-.803-3.801-3.678-5.701-8.623-5.701h-16.622l-.029 16.76h15.454c6.685 0 10.04-2.862 10.066-8.585h0zm53.296-13.874l-.055 5.907h-29.261l.035 15.11h26.993l-.057 5.907h-26.991l-.021 16.483h29.741l.012 5.907h-36.402l.087-49.314h35.92zm13.25 0v49.314h-6.661v-49.314h6.661zm54.148 14.834h-6.456c-.858-2.975-1.954-5.127-3.289-6.456-2.501-2.518-5.972-3.777-10.413-3.777-5.084 0-9.066 1.797-11.946 5.392s-4.321 8.528-4.323 14.801c-.017 2.518.192 4.808.628 6.869 1.839 8.7 6.925 13.05 15.259 13.05 4.761 0 8.481-1.786 11.161-5.357 1.326-1.741 2.444-4.466 3.355-8.175h6.456c-.123.504-.27 1.214-.443 2.13-1.273 4.808-2.909 8.334-4.908 10.577-4.043 4.488-9.452 6.732-16.228 6.732-5.587 0-10.253-1.603-13.998-4.808s-6.218-7.647-7.418-13.325c-.513-2.427-.762-5.014-.748-7.762.011-7.968 2.096-14.298 6.255-18.991s9.787-7.039 16.884-7.04c5.587 0 10.129 1.397 13.627 4.19s5.679 6.777 6.544 11.95h0zm49.572-14.834l-.087 49.314h-6.661l.013-23.008h-25.756l-.013 23.008h-6.663l.087-49.314h6.661l-.084 20.399h25.756l.084-20.399h6.663z" stroke-width=".943"/><path d="M726.219 367.989l-642.604-.529" fill-rule="evenodd" stroke-width="3.91"/></g></svg>