<svg xmlns="http://www.w3.org/2000/svg" fill="#fff" width="800" height="800" viewBox="0 0 32 32" xmlns:v="https://vecta.io/nano"><path d="M28.778 1.004H3.218h-.027c-1.199 0-2.172.964-2.186 2.159v25.672c.014 1.196.987 2.161 2.186 2.161h.029 25.555.028c1.2 0 2.175-.963 2.194-2.159v-.002-25.67c-.019-1.197-.994-2.161-2.195-2.161h-.029.001zM9.9 26.562H5.446V12.251H9.9zM7.674 10.293a2.58 2.58 0 0 1-2.579-2.579 2.58 2.58 0 0 1 2.579-2.579 2.58 2.58 0 0 1 2.579 2.578h0a2.58 2.58 0 0 1-2.577 2.581h-.003zm18.882 16.269h-4.441v-6.959c0-1.66-.034-3.795-2.314-3.795-2.316 0-2.669 1.806-2.669 3.673v7.082h-4.441V12.252h4.266v1.951h.058c.828-1.395 2.326-2.315 4.039-2.315l.181.003h-.009c4.5 0 5.332 2.962 5.332 6.817v7.855z"/></svg>