<svg xmlns="http://www.w3.org/2000/svg" width="157" height="50" xmlns:v="https://vecta.io/nano"><path fill="#d81921" fill-rule="evenodd" d="M109.711 48.865L81.337 0 52.964 48.865h56.747zm-64.313 0V4.414H0v44.452h45.398zm88.904.946c6.305 0 11.665-2.207 16.078-6.62S157 33.418 157 27.112s-2.207-11.665-6.62-16.078-9.773-6.62-16.078-6.62-11.665 2.207-16.078 6.62-6.62 9.773-6.62 16.078 2.207 11.665 6.62 16.078 9.773 6.62 16.078 6.62zM13.556 38.462h-2.207V15.763h2.207v18.285l9.143-15.763 9.143 15.763V15.763h2.207v22.699h-2.207l-9.143-15.763-9.143 15.763zm120.745 0c-3.153 0-5.832-1.103-8.039-3.31s-3.31-4.887-3.31-8.039 1.103-5.832 3.31-8.039 4.887-3.31 8.039-3.31c3.993 0 7.146 1.681 9.458 5.044l-2.207.946c-1.681-2.522-4.098-3.783-7.251-3.783-2.522 0-4.676.893-6.463 2.68s-2.68 3.941-2.68 6.463.893 4.676 2.68 6.463 3.888 2.68 6.305 2.68 4.466-.736 6.148-2.207 2.732-3.363 3.153-5.675h-9.143v-2.207h11.349v.946c0 3.153-1.103 5.832-3.31 8.039s-4.887 3.31-8.039 3.31zm-63.367 1.261h-2.837l13.241-22.699 13.241 22.699h-2.837l-3.153-5.675H74.086l-3.153 5.675zm16.394-7.882l-5.99-10.404-5.99 10.404h11.98z"/></svg>