<svg xmlns="http://www.w3.org/2000/svg" version="1.1" xmlns:xlink="http://www.w3.org/1999/xlink" xmlns:svgjs="http://svgjs.dev/svgjs" width="1500" height="1500" viewBox="0 0 1500 1500"><rect width="1500" height="1500" fill="#ffffff"></rect><g transform="matrix(0.6666666666666666,0,0,0.6666666666666666,250,187.66666666666674)"><svg viewBox="0 0 320 360" data-background-color="#ffffff" preserveAspectRatio="xMidYMid meet" height="1687" width="1500" xmlns="http://www.w3.org/2000/svg" xmlns:xlink="http://www.w3.org/1999/xlink"><g id="tight-bounds" transform="matrix(1,0,0,1,0,0)"><svg viewBox="0 0 320 360" height="360" width="320"><g><svg></svg></g><g><svg viewBox="0 0 320 360" height="360" width="320"><g><path d="M160 42.18c72.417 0 131.943 56.114 137.63 127.014h22.37c-1.137-17.82-5.308-34.882-12.133-51.185-7.962-18.957-19.716-36.398-34.502-50.805-14.787-14.787-31.848-26.161-50.806-34.503-20.095-8.341-40.948-12.891-62.559-12.891-21.611 0-42.464 4.171-62.559 12.512-18.957 7.962-36.398 19.716-50.806 34.503-14.787 14.787-26.161 31.848-34.502 50.805-6.825 16.303-10.995 33.744-12.133 51.185h22.37c5.687-70.521 65.213-126.635 137.63-126.635zM160 318.199c-72.417 0-131.943-56.114-137.63-127.014h-22.37c1.137 17.82 5.308 34.882 12.133 51.185 7.962 18.957 19.716 36.398 34.502 50.805 14.787 14.787 31.848 26.161 50.806 34.503 19.716 8.341 40.569 12.512 62.559 12.512 21.991 0 42.464-4.171 62.559-12.512 18.957-7.962 36.398-19.716 50.806-34.503 14.787-14.787 26.161-31.848 34.502-50.805 6.825-16.303 10.995-33.744 12.133-51.185h-22.37c-5.687 70.9-65.213 127.014-137.63 127.014z" fill="#000000" fill-rule="nonzero" stroke="none" stroke-width="1" stroke-linecap="butt" stroke-linejoin="miter" stroke-miterlimit="10" stroke-dasharray="" stroke-dashoffset="0" font-family="none" font-weight="none" font-size="none" text-anchor="none" style="mix-blend-mode: normal" data-fill-palette-color="tertiary"></path></g><g transform="matrix(1,0,0,1,74.12702239554267,90)"><svg viewBox="0 0 171.74595520891467 180" height="180" width="171.74595520891467"><g><svg viewBox="0 0 171.74595520891467 180" height="180" width="171.74595520891467"><g><svg viewBox="0 0 171.74595520891467 180" height="180" width="171.74595520891467"><g id="textblocktransform"><svg viewBox="0 0 171.74595520891467 180" height="180" width="171.74595520891467" id="textblock"><g><svg viewBox="0 0 171.74595520891467 180" height="180" width="171.74595520891467"><g transform="matrix(1,0,0,1,0,0)"><svg width="171.74595520891467" viewBox="18.0633 -4.676964817142856 25.287816753659694 26.503134817142854" height="180" data-palette-color="#9c2020"><path d="M34.737 20.886l-4.293 0.242-1.432-5.327-5.921 0.333-0.794 5.454-4.234 0.238 4.495-23.32 5.132-0.289zM25.236 1.591l-1.666 11.311 4.633-0.261zM31.132-3.1c2.427-1.343 4.577-1.828 6.452-1.456 1.869 0.375 3.384 1.613 4.546 3.713v0c1.236 2.234 1.534 4.252 0.893 6.055-0.641 1.802-2.108 3.338-4.4 4.606v0l-1.173 0.649 3.922 7.087-3.701 2.048-11.15-20.151zM36.878 7.161c1.266-0.7 2.02-1.499 2.263-2.396 0.237-0.893-0.036-2.049-0.82-3.466v0c-0.71-1.283-1.507-2.062-2.39-2.335-0.889-0.27-1.954-0.062-3.196 0.626v0l-0.998 0.552 4.179 7.551z" opacity="1" transform="matrix(1,0,0,1,0,0)" fill="#000000" class="wordmark-text-0" data-fill-palette-color="primary" id="text-0"></path></svg></g></svg></g></svg></g></svg></g></svg></g></svg></g></svg></g><defs></defs></svg><rect width="320" height="360" fill="none" stroke="none" visibility="hidden"></rect></g></svg></g></svg>